<svg xmlns="http://www.w3.org/2000/svg" viewBox="0 0 419.28 88.92"><g id="Layer_2" data-name="Layer 2"><g id="Layer_1-2" data-name="Layer 1"><path d="M22.2,62.64q0,8.28,11.94,8.28t11.94-7.44q0-4-4.08-6.48a39.84,39.84,0,0,0-9.9-4.2q-5.82-1.68-11.64-3.9a24.3,24.3,0,0,1-9.9-7A17.48,17.48,0,0,1,6.48,30.12Q6.48,0,45.24,0,59.4,0,66.66,5.34t7.26,14.82a24.34,24.34,0,0,1-.9,6.66,15.11,15.11,0,0,1-1.86,4.5l-1,1.44H49a9.67,9.67,0,0,0,2.64-7q0-7.8-10.2-7.8-12.84,0-12.84,8.16,0,4.08,4.08,6.48a35.75,35.75,0,0,0,9.9,3.78,120.54,120.54,0,0,1,11.7,3.42,22.77,22.77,0,0,1,10,6.78q4.08,4.74,4.08,12.3,0,15.24-9.12,22.62T31.08,88.92q-19,0-25.92-6.72Q0,77.16,0,68.28A41.12,41.12,0,0,1,.72,61L1.08,59h21.6l-.24,1.44A11.12,11.12,0,0,0,22.2,62.64Z"/><path d="M119.16,87.24l.72-18.84h-20L94,87.24H71L101.88.84h39.6l.48,86.4Zm-4.92-65.4-9.48,30.48h15.72l1.32-30.48Z"/><path d="M186.24,66.24,209,.84h23.4l-32.76,86.4h-38.4l-1-86.4h23.52l-.36,65.4Z"/><path d="M273.84,0q28.92,0,28.92,23.64a47.18,47.18,0,0,1-.84,8.52l-4.2,24q-2.88,16.68-12.48,24.72t-27,8q-17.4,0-24.24-8-4.68-5.52-4.68-15.24a52.13,52.13,0,0,1,1-9.48l4.2-24Q240.12,0,273.84,0ZM261.48,70.32q6,0,9.6-3.12t5-11.52l4.08-23a29.4,29.4,0,0,0,.36-4.32q0-9.72-9.84-9.72-12.36.24-14.76,14l-4.08,23a39.46,39.46,0,0,0-.48,6.24Q251.4,70.32,261.48,70.32Z"/><path d="M343.68.84l-15.12,86.4H306.84L322.08.84Z"/><path d="M395.52.84q13.68,0,19.44,6a16.08,16.08,0,0,1,4.32,11.52,28.2,28.2,0,0,1-.48,5l-1.68,9.36a30.26,30.26,0,0,1-5,12.6,21.18,21.18,0,0,1-7.86,6.84l10.92,35H391L380.88,55h-7.44l-4.92,32.28h-23L360.72.84ZM388,19.56h-9l-3.12,20.88h8.4q6.36,0,9.12-3.06a11.63,11.63,0,0,0,2.76-8.1Q396.12,19.56,388,19.56Z"/></g></g></svg>