<svg xmlns="http://www.w3.org/2000/svg" width="30.5" height="30.5" viewBox="0 0 30.5 30.5">
  <g id="Groupe_12" data-name="Groupe 12" transform="translate(0.75 0.75)">
    <rect id="Rectangle_87" data-name="Rectangle 87" width="29" height="29" rx="14.5" fill="none" stroke="#222221" stroke-miterlimit="10" stroke-width="1.5"/>
    <g id="Groupe_11" data-name="Groupe 11" transform="translate(4.267 8.2)">
      <path id="Tracé_4" data-name="Tracé 4" d="M333.5,145.19h-5.858l.007,1.678h3.95a3.877,3.877,0,0,1-3.844,3.3,4.6,4.6,0,1,1,3.124-7.965l1.3-1.118a6.3,6.3,0,1,0-4.421,10.787,5.706,5.706,0,0,0,5.755-6.028Z" transform="translate(-321.452 -139.268)" fill="#222221"/>
      <path id="Tracé_5" data-name="Tracé 5" d="M346.318,146.375H343.9v-2.418h-1.543v2.418h-2.418v1.543h2.418v2.418H343.9v-2.418h2.418Z" transform="translate(-325.853 -140.384)" fill="#222221"/>
    </g>
  </g>
</svg>
