<svg xmlns="http://www.w3.org/2000/svg" width="30.5" height="30.5" viewBox="0 0 30.5 30.5">
  <g id="Groupe_15" data-name="Groupe 15" transform="translate(0.75 0.75)">
    <path id="Tracé_7" data-name="Tracé 7" d="M441.189,157.5h0a14.5,14.5,0,0,1-14.5-14.5h0a14.5,14.5,0,0,1,14.5-14.5h0a14.5,14.5,0,0,1,14.5,14.5h0A14.5,14.5,0,0,1,441.189,157.5Z" transform="translate(-426.69 -128.505)" fill="none" stroke="#222221" stroke-miterlimit="10" stroke-width="1.5"/>
    <g id="Groupe_14" data-name="Groupe 14" transform="translate(6.55 6.55)">
      <path id="Tracé_8" data-name="Tracé 8" d="M443.236,138.533c2.123,0,2.374.008,3.213.046a4.4,4.4,0,0,1,1.476.274,2.628,2.628,0,0,1,1.509,1.509,4.4,4.4,0,0,1,.274,1.476c.038.839.046,1.09.046,3.213s-.008,2.374-.046,3.212a4.406,4.406,0,0,1-.274,1.477,2.628,2.628,0,0,1-1.509,1.509,4.39,4.39,0,0,1-1.476.274c-.839.038-1.09.046-3.213.046s-2.374-.008-3.212-.046a4.4,4.4,0,0,1-1.477-.274,2.633,2.633,0,0,1-1.509-1.509,4.391,4.391,0,0,1-.274-1.477c-.038-.838-.046-1.09-.046-3.212s.008-2.374.046-3.213a4.39,4.39,0,0,1,.274-1.476,2.633,2.633,0,0,1,1.509-1.509,4.411,4.411,0,0,1,1.477-.274c.838-.038,1.09-.046,3.212-.046m0-1.432c-2.159,0-2.43.01-3.278.048a5.841,5.841,0,0,0-1.93.37,4.066,4.066,0,0,0-2.325,2.325,5.821,5.821,0,0,0-.37,1.93c-.039.848-.048,1.119-.048,3.278s.009,2.43.048,3.278a5.821,5.821,0,0,0,.37,1.93,4.066,4.066,0,0,0,2.325,2.325,5.861,5.861,0,0,0,1.93.37c.848.038,1.118.047,3.278.047s2.43-.009,3.278-.047a5.861,5.861,0,0,0,1.93-.37,4.07,4.07,0,0,0,2.325-2.325,5.841,5.841,0,0,0,.37-1.93c.039-.848.048-1.119.048-3.278s-.009-2.43-.048-3.278a5.841,5.841,0,0,0-.37-1.93,4.069,4.069,0,0,0-2.325-2.325,5.841,5.841,0,0,0-1.93-.37c-.848-.038-1.119-.048-3.278-.048" transform="translate(-435.286 -137.101)" fill="#222221"/>
      <path id="Tracé_9" data-name="Tracé 9" d="M444.444,142.178a4.082,4.082,0,1,0,4.082,4.082,4.083,4.083,0,0,0-4.082-4.082m0,6.732a2.65,2.65,0,1,1,2.65-2.65,2.65,2.65,0,0,1-2.65,2.65" transform="translate(-436.494 -138.31)" fill="#222221"/>
      <path id="Tracé_10" data-name="Tracé 10" d="M451.946,141.668a.954.954,0,1,1-.954-.954.954.954,0,0,1,.954.954" transform="translate(-438.798 -137.961)" fill="#222221"/>
    </g>
  </g>
</svg>
