<svg xmlns="http://www.w3.org/2000/svg" viewBox="0 0 74.92 89.92"><defs><style>.cls-1{fill:#fff;stroke:#000;stroke-miterlimit:10;}</style></defs><g id="Layer_2" data-name="Layer 2"><g id="Layer_1-2" data-name="Layer 1"><path class="cls-1" d="M22.7,63.14q0,8.28,11.94,8.28T46.58,64q0-4-4.08-6.48a40.18,40.18,0,0,0-9.9-4.2Q26.78,51.62,21,49.4a24.35,24.35,0,0,1-9.9-7A17.51,17.51,0,0,1,7,30.62Q7,.5,45.74.5,59.9.5,67.16,5.84t7.26,14.82a24.2,24.2,0,0,1-.9,6.66,15,15,0,0,1-1.86,4.5l-1,1.44H49.5a9.7,9.7,0,0,0,2.64-7q0-7.8-10.2-7.8-12.84,0-12.84,8.16,0,4.08,4.08,6.48a35.81,35.81,0,0,0,9.9,3.78,118.68,118.68,0,0,1,11.7,3.42,22.78,22.78,0,0,1,10,6.78q4.08,4.74,4.08,12.3,0,15.24-9.12,22.62T31.58,89.42q-19,0-25.92-6.72Q.5,77.66.5,68.78a40.46,40.46,0,0,1,.72-7.28l.36-2h21.6l-.24,1.44A11.58,11.58,0,0,0,22.7,63.14Z"/></g></g></svg>