<svg xmlns="http://www.w3.org/2000/svg" width="30.5" height="30.5" viewBox="0 0 30.5 30.5">
  <g id="Groupe_10" data-name="Groupe 10" transform="translate(0.75 0.75)">
    <path id="Tracé_2" data-name="Tracé 2" d="M274.616,157.5h0a14.5,14.5,0,0,1-14.5-14.5h0a14.5,14.5,0,0,1,14.5-14.5h0a14.5,14.5,0,0,1,14.5,14.5h0A14.5,14.5,0,0,1,274.616,157.5Z" transform="translate(-260.116 -128.505)" fill="none" stroke="#222221" stroke-miterlimit="10" stroke-width="1.5"/>
    <path id="Tracé_3" data-name="Tracé 3" d="M269.007,150.429a9.016,9.016,0,0,0,13.87-8.006,6.425,6.425,0,0,0,1.581-1.641,6.322,6.322,0,0,1-1.82.5,3.174,3.174,0,0,0,1.394-1.754,6.359,6.359,0,0,1-2.012.77,3.172,3.172,0,0,0-5.4,2.892,9,9,0,0,1-6.534-3.312,3.174,3.174,0,0,0,.981,4.232,3.16,3.16,0,0,1-1.436-.4,3.174,3.174,0,0,0,2.543,3.149,3.173,3.173,0,0,1-1.431.053,3.171,3.171,0,0,0,2.961,2.2A6.375,6.375,0,0,1,269.007,150.429Z" transform="translate(-262.233 -131.074)" fill="#222221"/>
  </g>
</svg>
